<svg xmlns="http://www.w3.org/2000/svg" viewBox="0 0 40 40"><rect width="40" height="40" rx="8" fill="#1F2E26"/><g fill="none" stroke="#E6D2AE" stroke-width="1.8"><path d="M19.6 5.4c8.2-.3 15.1 6 14.9 14.2-.2 8.1-7 14.9-15.1 14.7C11.5 34.1 5.3 27.8 5.5 19.8 5.7 11.9 11.8 5.7 19.6 5.4z"/><path d="M20.5 11c5.1-.2 8.9 3.7 8.7 8.7-.2 5-4.3 8.9-9.3 8.7-4.8-.2-8.5-4.1-8.3-8.9.2-4.6 4.1-8.3 8.9-8.5z"/><path d="M21.2 16.4c2.2-.1 3.8 1.6 3.7 3.7-.1 2.1-1.8 3.6-4 3.5-2-.1-3.4-1.7-3.3-3.7.1-1.9 1.7-3.4 3.6-3.5z"/></g></svg>
